<?xml version="1.0" ?><svg enable-background="new 0 0 24 24" id="Layer_1" version="1.1" viewBox="0 0 24 24" xml:space="preserve" xmlns="http://www.w3.org/2000/svg" xmlns:xlink="http://www.w3.org/1999/xlink"><g><path d="M12,0C5.3828125,0,0,5.3833008,0,12s5.3828125,12,12,12s12-5.3833008,12-12S18.6171875,0,12,0z" fill="#303C42"/><path d="M12,23C5.9345703,23,1,18.0654297,1,12S5.9345703,1,12,1s11,4.9345703,11,11S18.0654297,23,12,23z" fill="#FED600"/><path d="M19.119751,3.630249C20.7561646,5.5509644,21.75,8.0349121,21.75,10.75   c0,6.0654297-4.9345703,11-11,11c-2.7150879,0-5.1990356-0.9938354-7.119751-2.630249C5.6494751,21.4898682,8.6496582,23,12,23   c6.0654297,0,11-4.9345703,11-11C23,8.6496582,21.4898682,5.6494751,19.119751,3.630249z" fill="#010101" opacity="0.1"/><path d="M18.5,13h-13C5.2236328,13,5,13.2236328,5,13.5c0,4.2055664,3.0751953,7.5,7,7.5s7-3.2944336,7-7.5   C19,13.2236328,18.7763672,13,18.5,13z" fill="#303C42"/><path d="M9.2915039,19.3206787c0.7383423-0.4069824,1.6638184-0.4345093,2.456543,0.0274658   c0.15625,0.0908203,0.3476563,0.0908203,0.5039063,0c0.7922974-0.461731,1.7172852-0.4344482,2.4563599-0.0274048   C13.8985596,19.7549438,12.980896,20,12,20C11.0189819,20,10.1012573,19.7549438,9.2915039,19.3206787z" fill="#E53A35"/><path d="M15.6136475,18.7183838C14.5941162,17.9484863,13.1906128,17.7727051,12,18.3496094   c-1.1903687-0.5785522-2.5947266-0.4019165-3.6135864,0.3687744C7.0430908,17.6347046,6.147644,15.951416,6.0166016,14h11.9667969   C17.852356,15.951416,16.9569092,17.6347656,15.6136475,18.7183838z" fill="#B72025"/><path d="M7.0979047,16.0951405c-0.147974-0.6132164,0.3508811-1.1960316,0.9816985-1.1960316   h9.7795887C17.916626,14.605957,17.9627075,14.3078003,17.9833984,14H6.0166016   c0.1309204,1.9495239,1.0250244,3.6311035,2.3660278,4.7149658C7.7823768,17.9767857,7.3370075,17.0860023,7.0979047,16.0951405z" fill="#010101" opacity="0.1"/><path d="M5.2763672,7.9472656l4,2C9.3486328,9.9829102,9.4248047,10,9.5,10   c0.1826172,0,0.359375-0.1010742,0.4472656-0.2763672c0.1230469-0.2470703,0.0234375-0.5473633-0.2236328-0.6708984l-4-2   c-0.2460938-0.1220703-0.546875-0.0229492-0.6708984,0.2236328C4.9296875,7.5234375,5.0292969,7.8237305,5.2763672,7.9472656z" fill="#303C42"/><path d="M14.5,10c0.0751953,0,0.1513672-0.0170898,0.2236328-0.0527344l4-2   c0.2470703-0.1235352,0.3466797-0.4238281,0.2236328-0.6708984c-0.1240234-0.2475586-0.4228516-0.3466797-0.6708984-0.2236328l-4,2   c-0.2470703,0.1235352-0.3466797,0.4238281-0.2236328,0.6708984C14.140625,9.8989258,14.3173828,10,14.5,10z" fill="#303C42"/><linearGradient gradientUnits="userSpaceOnUse" id="SVGID_1_" x1="1.1248534" x2="22.8751469" y1="6.9288359" y2="17.0711651"><stop offset="0" style="stop-color:#FFFFFF;stop-opacity:0.2"/><stop offset="1" style="stop-color:#FFFFFF;stop-opacity:0"/></linearGradient><path d="M12,0C5.3828125,0,0,5.3833008,0,12s5.3828125,12,12,12s12-5.3833008,12-12S18.6171875,0,12,0z" fill="url(#SVGID_1_)"/></g><g/><g/><g/><g/><g/><g/><g/><g/><g/><g/><g/><g/><g/><g/><g/></svg>